<svg xmlns="http://www.w3.org/2000/svg" width="220" height="53" viewBox="0 0 220 53"><defs><mask id="mcr1b" width="2" height="2.01" x="-1" y="-1"><path fill="#fff" d="M3.8 1.8h212.4v45.4H3.8z"/><path d="M26.5 2h167C205.926 2 216 12.074 216 24.5S205.926 47 193.5 47h-167C14.074 47 4 36.926 4 24.5S14.074 2 26.5 2z"/></mask><filter id="mcr1a" width="242.2" height="77.2" x="-11.1" y="-13.1" filterUnits="userSpaceOnUse"><feOffset dy="2" in="SourceGraphic" result="FeOffset1073Out"/><feGaussianBlur in="FeOffset1073Out" result="FeGaussianBlur1074Out" stdDeviation="1.9600000000000002 1.9600000000000002"/></filter></defs><g><g><g><g filter="url(#mcr1a)"><path fill="none" stroke="#212121" stroke-opacity=".35" stroke-width=".4" d="M26.5 2h167C205.926 2 216 12.074 216 24.5S205.926 47 193.5 47h-167C14.074 47 4 36.926 4 24.5S14.074 2 26.5 2z" mask="url(&quot;#mcr1b&quot;)"/><path fill="#212121" fill-opacity=".35" d="M26.5 2h167C205.926 2 216 12.074 216 24.5S205.926 47 193.5 47h-167C14.074 47 4 36.926 4 24.5S14.074 2 26.5 2z"/></g><path fill="#fff" d="M26.5 2h167C205.926 2 216 12.074 216 24.5S205.926 47 193.5 47h-167C14.074 47 4 36.926 4 24.5S14.074 2 26.5 2z"/></g><g><path fill="#6c6c6c" d="M179.172 30.031l6-6-6-6-1.43 1.407 4.594 4.593-4.594 4.594z"/><path fill="#212121" d="M179.172 30.031l6-6-6-6-1.43 1.407 4.594 4.593-4.594 4.594z"/></g><g><g><text dominant-baseline="text-before-edge" style="text-transform:uppercase;line-height:24px" fill="#6c6c6c" font-family="'Montserrat','Montserrat-Bold'" font-size="18" font-style="none" font-weight="700" transform="translate(35 18)"><tspan style="font-kerning:normal" letter-spacing="3.6">Order Us</tspan></text></g></g></g></g></svg>